<svg width="45" height="45" viewBox="0 0 45 45" fill="none" xmlns="http://www.w3.org/2000/svg">
<path d="M22.5 45C34.9264 45 45 34.9264 45 22.5C45 10.0736 34.9264 0 22.5 0C10.0736 0 0 10.0736 0 22.5C0 34.9264 10.0736 45 22.5 45Z" fill="#343A40"/>
<path d="M20.3093 6.27563H24.6903V11.9452H20.3093V6.27563Z" fill="white"/>
<path d="M22.4841 6.27563H24.6906V11.9452H22.4841V6.27563Z" fill="white"/>
<path d="M9.02283 11.7612L12.1202 8.66387L16.1286 12.6722L13.0312 15.7696L9.02283 11.7612Z" fill="white"/>
<path d="M31.9681 15.7744L28.8708 12.6771L32.8792 8.66867L35.9765 11.766L31.9681 15.7744Z" fill="white"/>
<path d="M22.4998 39.5722C30.7298 39.5722 37.4015 32.9004 37.4015 24.6705C37.4015 16.4405 30.7298 9.7688 22.4998 9.7688C14.2699 9.7688 7.59814 16.4405 7.59814 24.6705C7.59814 32.9004 14.2699 39.5722 22.4998 39.5722Z" fill="white"/>
<path d="M22.5001 9.7688C22.4948 9.7688 22.4895 9.76897 22.4841 9.76897V39.5719C22.4895 39.5719 22.4948 39.5721 22.5001 39.5721C30.7301 39.5721 37.4018 32.9004 37.4018 24.6704C37.4018 16.4404 30.7301 9.7688 22.5001 9.7688Z" fill="white"/>
<path d="M22.5002 35.9963C28.7554 35.9963 33.8262 30.9255 33.8262 24.6703C33.8262 18.4151 28.7554 13.3442 22.5002 13.3442C16.245 13.3442 11.1742 18.4151 11.1742 24.6703C11.1742 30.9255 16.245 35.9963 22.5002 35.9963Z" fill="#343A40"/>
<path d="M22.5001 13.3442C22.4948 13.3442 22.4895 13.3444 22.4841 13.3444V35.996C22.4895 35.996 22.4948 35.9962 22.5001 35.9962C28.7553 35.9962 33.8262 30.9254 33.8262 24.6702C33.8262 18.415 28.7553 13.3442 22.5001 13.3442Z" fill="#343A40"/>
<path d="M18.892 4.62329H26.1077V8.16563H18.892V4.62329Z" fill="white"/>
<path d="M22.4841 4.62329H26.108V8.16563H22.4841V4.62329Z" fill="white"/>
<path d="M21.5634 23.7378L27.7772 17.5239L29.6414 19.3881L23.4275 25.602L21.5634 23.7378Z" fill="white"/>
<path d="M22.4999 26.9798C23.7753 26.9798 24.8092 25.9459 24.8092 24.6706C24.8092 23.3952 23.7753 22.3613 22.4999 22.3613C21.2246 22.3613 20.1907 23.3952 20.1907 24.6706C20.1907 25.9459 21.2246 26.9798 22.4999 26.9798Z" fill="white"/>
<path d="M22.5001 22.3613C22.4948 22.3613 22.4895 22.3617 22.4841 22.3618V26.9795C22.4895 26.9795 22.4948 26.9799 22.5001 26.9799C23.7755 26.9799 24.8094 25.946 24.8094 24.6707C24.8094 23.3953 23.7755 22.3613 22.5001 22.3613Z" fill="white"/>
</svg>
