<svg width="45" height="45" viewBox="0 0 45 45" fill="none" xmlns="http://www.w3.org/2000/svg">
<g clip-path="url(#clip0)">
<path d="M22.5 45.0001C34.9265 45.0001 45.0001 34.9265 45.0001 22.5C45.0001 10.0736 34.9265 0 22.5 0C10.0736 0 0 10.0736 0 22.5C0 34.9265 10.0736 45.0001 22.5 45.0001Z" fill="#313638"/>
<path d="M32.7655 32.7656C31.9217 33.6093 30.5154 33.6093 29.6717 32.7656L22.4998 25.5937L15.328 32.7656C14.4843 33.6093 13.0779 33.6093 12.2342 32.7656C11.3905 31.9218 11.3905 30.5155 12.2342 29.6718L19.4061 22.5L12.2342 15.3281C11.3905 14.4844 11.3905 13.0781 12.2342 12.2344C13.0779 11.3906 14.4843 11.3906 15.328 12.2344L22.4998 19.4062L29.6717 12.2344C30.5154 11.3906 31.9217 11.3906 32.7655 12.2344C33.6092 13.0781 33.6092 14.4844 32.7655 15.3281L25.5936 22.5L32.7655 29.6718C33.6092 30.5155 33.6092 31.9217 32.7655 32.7656Z" fill="white"/>
</g>
<defs>
<clipPath id="clip0">
<rect width="45" height="45" fill="white"/>
</clipPath>
</defs>
</svg>
