<svg width="55" height="55" viewBox="0 0 55 55" fill="none" xmlns="http://www.w3.org/2000/svg">
<path d="M27.5 0C12.3359 0 0 12.3359 0 27.5C0 42.6641 12.3359 55 27.5 55C42.6641 55 55 42.6641 55 27.5C55 12.3359 42.6641 0 27.5 0Z" fill="#343A40"/>
<path d="M41.438 21.6724L26.542 36.5679C26.0951 37.0148 25.5085 37.2398 24.9218 37.2398C24.3352 37.2398 23.7486 37.0148 23.3017 36.5679L15.8539 29.1202C14.9576 28.2243 14.9576 26.7758 15.8539 25.8799C16.7498 24.9836 18.1979 24.9836 19.0942 25.8799L24.9218 31.7075L38.1977 18.4321C39.0936 17.5358 40.5417 17.5358 41.438 18.4321C42.3338 19.328 42.3338 20.7761 41.438 21.6724Z" fill="#FAFAFA"/>
</svg>
