<svg width="149" height="436" viewBox="0 0 149 436" fill="none" xmlns="http://www.w3.org/2000/svg">
<path d="M126.612 90.387L131.078 92.6268C131.078 92.6268 155.267 153.476 147.08 168.035C138.893 182.594 113.214 209.846 113.214 209.846L108.376 196.033L128.163 153.003L126.612 90.387Z" fill="#575A89"/>
<path opacity="0.1" d="M126.612 90.387L131.078 92.6268C131.078 92.6268 155.267 153.476 147.08 168.035C138.893 182.594 113.214 209.846 113.214 209.846L108.376 196.033L128.163 153.003L126.612 90.387Z" fill="black"/>
<path d="M121.774 394.633C121.774 394.633 128.1 409.192 124.751 410.312C121.402 411.432 117.308 411.432 113.214 411.432C109.121 411.432 104.283 409.939 103.538 408.446C102.794 406.952 106.516 397.246 106.516 397.246L121.774 394.633Z" fill="#575A89"/>
<path d="M36.5515 402.099C36.5515 402.099 40.6451 415.165 38.7844 415.912C36.9236 416.658 30.9692 420.018 27.6199 418.898C24.2705 417.778 19.0604 415.165 17.944 414.045C16.8275 412.925 17.944 406.952 17.944 406.952L23.1541 399.486L36.5515 402.099Z" fill="#575A89"/>
<path d="M109.865 207.979L115.2 209.846C115.2 209.846 116.564 222.538 115.075 227.018C113.587 231.497 110.237 263.975 112.098 270.695C113.959 277.414 112.842 288.24 112.842 288.24C112.842 288.24 124.007 324.824 121.774 332.664C119.541 340.503 119.913 351.703 122.146 357.302C124.379 362.902 126.24 365.142 125.123 369.621C124.007 374.101 121.774 376.341 124.007 380.074C126.24 383.807 130.706 384.927 128.473 388.287C126.24 391.647 124.007 394.26 124.751 396.5C125.495 398.739 105.027 402.846 103.166 399.486C103.166 399.486 109.121 394.26 103.166 391.273C97.212 388.287 99.0727 377.088 99.0727 377.088C99.0727 377.088 88.6525 334.157 89.0247 330.797C89.3968 327.438 72.6501 275.174 72.6501 275.174C72.6501 275.174 48.0881 349.836 46.5995 353.196C45.1109 356.556 48.4603 364.768 46.5995 367.008C44.7388 369.248 47.3438 374.848 44.7388 377.088C42.1337 379.327 49.2046 387.54 44.7388 390.527C40.273 393.513 38.0401 402.846 38.4122 404.712C38.7844 406.579 19.8047 404.339 19.8047 401.726C19.8047 399.113 20.1768 396.873 18.3161 392.393C16.4554 387.914 15.3389 384.927 16.8275 383.434C18.3161 381.941 19.4326 380.074 17.944 374.848C16.4554 369.621 20.1768 353.569 19.0604 350.583C17.9439 347.596 18.3161 327.438 18.3161 327.438C18.3161 327.438 22.0376 297.946 20.9212 293.093C19.8047 288.24 20.9212 287.12 21.2933 285.254C21.6654 283.387 23.8983 263.229 25.3869 260.242C26.8755 257.256 28.7363 206.112 37.2958 203.499C45.8552 200.886 109.865 207.979 109.865 207.979Z" fill="#2F2E41"/>
<path d="M112.842 408.072C112.842 408.072 126.24 405.832 126.984 408.072C127.728 410.312 129.961 427.858 124.751 428.231C119.541 428.604 110.609 429.724 109.121 426.364C107.632 423.004 100.561 420.765 100.561 420.765C100.561 420.765 90.1411 417.778 90.1411 414.418C90.1411 411.059 90.5132 405.832 92.374 405.459C94.2348 405.086 101.678 400.979 101.678 399.486C101.678 397.993 112.842 408.072 112.842 408.072Z" fill="#2F2E41"/>
<path d="M29.1084 414.045C29.1084 414.045 38.7843 411.059 41.0172 412.925C43.2501 414.792 46.2273 435.324 41.0172 434.95C35.8071 434.577 22.0375 436.817 21.2932 433.83C20.5489 430.844 10.5009 430.097 10.5009 430.097C10.5009 430.097 -0.291488 424.871 0.452818 419.271C1.19712 413.672 2.31358 411.805 6.77939 411.432C11.2452 411.059 14.5945 405.832 14.9667 405.459C15.3388 405.086 18.62 402.357 19.0262 405.401C19.4325 408.445 24.2704 415.165 29.1084 414.045Z" fill="#2F2E41"/>
<path d="M59.6247 52.3095C72.1622 52.3095 82.3259 42.1142 82.3259 29.5377C82.3259 16.9612 72.1622 6.76587 59.6247 6.76587C47.0872 6.76587 36.9236 16.9612 36.9236 29.5377C36.9236 42.1142 47.0872 52.3095 59.6247 52.3095Z" fill="#A0616A"/>
<path d="M79.3488 34.764C79.3488 34.764 80.8374 59.7757 86.4197 62.0155C92.0019 64.2554 58.1362 64.2554 58.1362 64.2554C58.1362 64.2554 57.7641 48.5764 52.9261 44.8434C48.0881 41.1103 79.3488 34.764 79.3488 34.764Z" fill="#A0616A"/>
<path d="M88.2804 56.4159C88.2804 56.4159 65.207 47.8298 57.0197 61.2689C57.0197 61.2689 30.9692 73.588 29.1084 81.0542C27.2477 88.5204 44.7388 144.517 44.7388 144.517C44.7388 144.517 44.7388 190.807 41.0173 195.66C37.2958 200.513 30.2249 205.739 35.0629 206.859C39.9008 207.979 115.819 216.192 115.447 211.339C115.075 206.486 110.237 202.379 115.447 199.393C120.657 196.406 116.192 193.047 119.541 183.341C122.89 173.635 131.078 93.3734 131.078 93.3734C131.078 93.3734 125.495 83.2941 124.379 82.1741C123.262 81.0542 88.2804 56.4159 88.2804 56.4159Z" fill="#575A89"/>
<path d="M21.6655 219.925C21.6655 219.925 7.15165 252.776 19.8048 257.256C32.4579 261.735 31.7135 222.538 31.7135 222.538L21.6655 219.925Z" fill="#A0616A"/>
<path d="M70.5139 33.7728C69.198 31.1279 67.2281 28.0768 64.2858 28.2378C62.7979 28.3192 61.5149 29.2479 60.1889 29.9296C58.8628 30.6113 57.1638 31.0338 55.9513 30.1651C54.1778 28.8943 54.7277 25.8803 53.1414 24.3811C51.4096 22.7445 47.9266 23.6582 46.8092 21.5511C46.2126 20.426 46.6944 19.0301 46.4342 17.7827C44.6227 17.938 42.7985 17.7254 41.0708 17.1576C39.3906 16.4745 37.9357 14.8916 37.9827 13.0736C38.0329 12.4543 38.2059 11.8512 38.4914 11.2997C38.777 10.7483 39.1693 10.2595 39.6455 9.86202C41.9332 7.77537 45.2425 7.37522 48.0655 6.10971C50.312 5.10261 52.2654 3.53306 54.4735 2.44366C58.2737 0.568733 62.6579 0.205137 66.8806 0.52883C73.2833 1.01963 79.7582 3.15107 84.4011 7.60077C89.044 12.0505 91.5012 19.0704 89.4989 25.1906C88.3642 28.6586 85.9596 31.5735 84.6177 34.9662C83.7951 37.2879 83.2249 39.692 82.917 42.1365L81.9749 47.9347C82.1216 47.0324 80.1464 44.769 79.4986 44.2304C78.0856 43.0557 76.0304 43.4543 74.7186 42.3662C72.7783 40.7567 71.6555 36.0674 70.5139 33.7728Z" fill="#2F2E41"/>
<path opacity="0.1" d="M37.6679 78.4411L31.7134 82.1742C31.7134 82.1742 22.0376 140.784 23.154 148.996C24.2705 157.209 18.6882 203.499 20.549 207.232C22.4097 210.966 23.154 211.712 23.154 213.952C23.154 216.192 17.9439 224.405 21.2932 225.898C24.6426 227.391 36.9236 230.004 36.9236 225.898C36.9236 221.792 34.6907 216.192 38.7843 213.579C42.878 210.966 45.8552 194.167 45.8552 194.167C45.8552 194.167 47.7159 176.995 49.5767 173.635C51.4375 170.275 54.0425 157.956 54.0425 152.729C54.0425 147.503 58.5083 126.225 55.9033 115.399C53.2982 104.573 52.5539 75.4547 37.6679 78.4411Z" fill="black"/>
<path d="M35.0629 77.3212L29.1085 81.0542C29.1085 81.0542 19.4326 139.664 20.549 147.876C21.6655 156.089 16.0832 202.379 17.944 206.113C19.8047 209.846 20.549 210.592 20.549 212.832C20.549 215.072 15.3389 223.285 18.6883 224.778C22.0376 226.271 34.3186 228.884 34.3186 224.778C34.3186 220.672 32.0857 215.072 36.1793 212.459C40.273 209.846 43.2502 193.047 43.2502 193.047C43.2502 193.047 45.111 175.875 46.9717 172.515C48.8325 169.155 51.4375 156.836 51.4375 151.609C51.4375 146.383 55.9033 125.105 53.2982 114.279C50.6932 103.453 49.9489 74.3347 35.0629 77.3212Z" fill="#575A89"/>
</svg>
