<svg width="40" height="40" viewBox="0 0 40 40" fill="none" xmlns="http://www.w3.org/2000/svg">
<path d="M34.1422 5.85781C30.3646 2.08039 25.3422 0 20 0C14.6578 0 9.63539 2.08039 5.85781 5.85781C2.08039 9.63539 0 14.6578 0 20C0 25.3422 2.08039 30.3646 5.85781 34.1422C9.63539 37.9196 14.6578 40 20 40C25.3422 40 30.3646 37.9196 34.1422 34.1422C37.9196 30.3646 40 25.3422 40 20C40 14.6578 37.9196 9.63539 34.1422 5.85781ZM20 5.46875C22.3693 5.46875 24.2969 7.39633 24.2969 9.76562C24.2969 12.1349 22.3693 14.0625 20 14.0625C17.6307 14.0625 15.7031 12.1349 15.7031 9.76562C15.7031 7.39633 17.6307 5.46875 20 5.46875ZM25.4688 32.8125H14.5312V30.4688H16.875V18.75H14.5312V16.4062H23.125V30.4688H25.4688V32.8125Z" fill="#343A40"/>
</svg>
