<svg width="75" height="75" viewBox="0 0 75 75" fill="none" xmlns="http://www.w3.org/2000/svg">
<rect x="3.75" y="3.75" width="67.5" height="67.5" rx="33.75" stroke="white" stroke-width="7.5"/>
<path d="M49.6055 27.8555H41.0703V51H34.2148V27.8555H25.8359V22.5625H49.6055V27.8555Z" fill="white"/>
<path d="M49.6055 27.8555V29.1055H50.8555V27.8555H49.6055ZM41.0703 27.8555V26.6055H39.8203V27.8555H41.0703ZM41.0703 51V52.25H42.3203V51H41.0703ZM34.2148 51H32.9648V52.25H34.2148V51ZM34.2148 27.8555H35.4648V26.6055H34.2148V27.8555ZM25.8359 27.8555H24.5859V29.1055H25.8359V27.8555ZM25.8359 22.5625V21.3125H24.5859V22.5625H25.8359ZM49.6055 22.5625H50.8555V21.3125H49.6055V22.5625ZM49.6055 26.6055H41.0703V29.1055H49.6055V26.6055ZM39.8203 27.8555V51H42.3203V27.8555H39.8203ZM41.0703 49.75H34.2148V52.25H41.0703V49.75ZM35.4648 51V27.8555H32.9648V51H35.4648ZM34.2148 26.6055H25.8359V29.1055H34.2148V26.6055ZM27.0859 27.8555V22.5625H24.5859V27.8555H27.0859ZM25.8359 23.8125H49.6055V21.3125H25.8359V23.8125ZM48.3555 22.5625V27.8555H50.8555V22.5625H48.3555Z" fill="white"/>
</svg>
