<svg width="24" height="24" viewBox="0 0 24 24" fill="none" xmlns="http://www.w3.org/2000/svg">
<path d="M11.99 2C6.46999 2 1.98999 6.48 1.98999 12C1.98999 17.52 6.46999 22 11.99 22C17.51 22 21.99 17.52 21.99 12C21.99 6.48 17.51 2 11.99 2ZM15.6 8.34C16.67 8.34 17.53 9.2 17.53 10.27C17.53 11.34 16.67 12.2 15.6 12.2C14.53 12.2 13.67 11.34 13.67 10.27C13.66 9.2 14.53 8.34 15.6 8.34ZM9.59999 6.76C10.9 6.76 11.96 7.82 11.96 9.12C11.96 10.42 10.9 11.48 9.59999 11.48C8.29999 11.48 7.23999 10.42 7.23999 9.12C7.23999 7.81 8.28999 6.76 9.59999 6.76ZM9.59999 15.89V19.64C7.19999 18.89 5.29999 17.04 4.45999 14.68C5.50999 13.56 8.12999 12.99 9.59999 12.99C10.13 12.99 10.8 13.07 11.5 13.21C9.85999 14.08 9.59999 15.23 9.59999 15.89ZM11.99 20C11.72 20 11.46 19.99 11.2 19.96V15.89C11.2 14.47 14.14 13.76 15.6 13.76C16.67 13.76 18.52 14.15 19.44 14.91C18.27 17.88 15.38 20 11.99 20Z" fill="#A2A4A5"/>
</svg>
