<svg width="366" height="280" viewBox="0 0 366 280" fill="none" xmlns="http://www.w3.org/2000/svg">
<g clip-path="url(#clip0)">
<path d="M246.587 257.14C229.552 257.183 212.533 256.131 195.649 253.992C195.098 253.925 194.539 253.851 193.984 253.773C189.84 253.217 185.694 252.582 181.663 251.884C163.523 248.756 146.417 244.186 130.82 238.301C78.9162 218.719 46.2822 222.887 28.0458 229.831C8.31004 237.346 0.723521 249.642 0.649161 249.765L0 249.418C0.0752657 249.293 7.75966 236.814 27.711 229.199C39.4088 224.734 52.9794 222.783 68.0487 223.398C86.859 224.166 108.071 228.961 131.097 237.647C146.648 243.514 163.706 248.071 181.797 251.192C185.818 251.887 189.955 252.522 194.092 253.076C194.644 253.154 195.198 253.227 195.748 253.294C241.514 259.232 285.665 255.651 314.645 251.602C338.532 248.264 353.905 244.362 354.057 244.323L354.253 245.002C354.1 245.042 338.689 248.954 314.755 252.298C292.187 255.468 269.404 257.086 246.587 257.14Z" fill="#E6E6E6"/>
<path d="M246.638 55.0838C233.479 55.084 220.669 54.5032 208.31 53.3422C179.91 50.6745 153.838 44.9185 130.82 36.2342C78.9162 16.6521 46.2822 20.8194 28.0458 27.764C8.31004 35.279 0.723521 47.5749 0.649161 47.6982L0 47.3506C0.0752657 47.2255 7.75966 34.7469 27.711 27.1323C39.409 22.6676 52.9794 20.7156 68.0487 21.3313C86.859 22.0995 108.071 26.8935 131.097 35.5804C183.082 55.1931 240.929 55.9639 280.303 53.1591C322.979 50.1177 353.752 42.3345 354.057 42.2563L354.253 42.9356C353.947 43.0141 323.119 50.8125 280.375 53.8599C268.931 54.6759 257.662 55.0838 246.638 55.0838Z" fill="#E6E6E6"/>
<path d="M244.705 3.404C244.705 3.404 230.03 -1.5391 220.597 18.2333C211.163 38.0057 196.489 59.7553 196.489 59.7553L204.874 61.7325C204.874 61.7325 206.97 47.8918 212.211 45.9146L210.115 63.7097C210.115 63.7097 273.005 84.4708 301.306 61.7325L300.258 54.8122C300.258 54.8122 304.451 55.8008 304.451 61.7325L307.595 58.7666C307.595 58.7666 304.451 52.8349 295.017 44.926C288.825 39.7349 286.697 29.8589 285.966 23.6843C285.418 18.5284 283.231 13.649 279.692 9.6861C273.423 2.83341 262 -4.45003 244.705 3.404Z" fill="#343A40"/>
<path d="M333.768 115.288C333.768 115.288 361.383 137.503 365.443 150.526C369.504 163.549 350.012 165.081 350.012 165.081L307.779 168.911C307.779 168.911 306.966 187.296 299.657 189.594C292.347 191.892 298.173 159.192 298.173 159.192L339.454 148.228L320.773 129.843L333.768 115.288Z" fill="#FBBEBE"/>
<path d="M204.632 138.269L201.383 178.869L183.515 247.812C183.515 247.812 167.271 279.22 181.078 279.986C194.885 280.752 194.073 250.111 194.073 250.111L220.063 184.998L222.5 140.568L204.632 138.269Z" fill="#FBBEBE"/>
<path d="M250.114 67.0281C264.916 67.0281 276.916 55.7102 276.916 41.7489C276.916 27.7876 264.916 16.4697 250.114 16.4697C235.311 16.4697 223.312 27.7876 223.312 41.7489C223.312 55.7102 235.311 67.0281 250.114 67.0281Z" fill="#FBBEBE"/>
<path d="M237.931 54.0055C237.931 54.0055 247.677 86.945 232.246 95.3714C216.814 103.798 271.23 109.926 285.85 84.6469C285.85 84.6469 259.86 76.2205 267.17 54.0055H237.931Z" fill="#FBBEBE"/>
<path d="M219.251 99.2016L214.378 97.6696C214.378 97.6696 204.632 101.5 204.632 108.394C204.632 115.288 203.007 142.866 203.007 142.866L224.936 145.164L219.251 99.2016Z" fill="#575A89"/>
<path d="M314.7 251.95C284.718 256.139 241.019 259.522 195.7 253.643C195.697 253.221 195.697 252.809 195.697 252.407C195.697 250.017 195.794 247.654 195.988 245.318C198.309 216.549 214.023 192.565 220.103 184.254C220.409 183.831 220.692 183.451 220.946 183.113C221.928 181.814 222.499 181.128 222.499 181.128C222.499 181.128 269.605 180.403 293.97 189.594C295.145 190.059 296.22 190.723 297.143 191.552C306.228 199.458 311.565 225.128 314.7 251.95Z" fill="#343A40"/>
<path d="M297.22 88.4771C297.22 88.4771 307.779 83.1149 318.337 94.6054L339.454 117.586L323.21 134.439L292.347 116.82L297.22 88.4771Z" fill="#575A89"/>
<path d="M221.152 41.9092C230.64 35.4327 238.32 27.973 243.401 19.0994C243.401 19.0994 260.813 37.3472 271.454 38.2596C282.095 39.172 272.422 16.3622 272.422 16.3622L253.075 11.8003L234.695 13.6251L220.185 22.749L221.152 41.9092Z" fill="#343A40"/>
<path d="M281.789 83.1149C281.789 83.1149 270.423 100.065 236.309 91.9727L216.951 97.0012L214.378 97.6695C214.378 97.6695 216.814 143.632 223.312 152.058C229.809 160.484 228.185 165.081 226.561 165.847C224.936 166.613 220.875 165.081 223.312 168.911C225.748 172.741 228.997 170.443 225.748 172.741C222.5 175.039 220.875 183.465 220.875 183.465L297.22 192.658C297.22 192.658 294.784 162.783 301.281 147.462C307.779 132.141 309.403 126.013 309.403 126.013L304.53 87.7111L281.789 83.1149Z" fill="#575A89"/>
<path d="M123.12 68.1184H18.6133V191.33H123.12V68.1184Z" fill="#CCCCCC"/>
<path d="M48.2858 78.5033H25.8914V92.5846H48.2858V78.5033Z" fill="white"/>
<path d="M112.67 105.962H26.0781V110.89H112.67V105.962Z" fill="white"/>
<path d="M112.67 118.987H26.0781V123.916H112.67V118.987Z" fill="white"/>
<path d="M112.67 132.012H26.0781V136.941H112.67V132.012Z" fill="white"/>
<path d="M112.67 145.037H26.0781V149.966H112.67V145.037Z" fill="white"/>
<path d="M112.67 158.063H26.0781V162.991H112.67V158.063Z" fill="white"/>
<path d="M143.648 191.154C143.644 195.803 141.86 200.295 138.626 203.804C135.391 207.313 130.922 209.603 126.041 210.253C121.16 210.903 116.194 209.871 112.055 207.344C107.917 204.818 104.884 200.968 103.514 196.501C102.144 192.035 102.529 187.252 104.598 183.032C106.667 178.812 110.281 175.437 114.776 173.529C119.272 171.621 124.346 171.307 129.068 172.644C133.789 173.982 137.84 176.882 140.476 180.811C142.549 183.906 143.649 187.493 143.648 191.154Z" fill="#575A89"/>
<path d="M140.476 180.811L120.269 199.867C118.999 198.012 111.923 189.394 111.923 189.394C112.83 188.529 113.797 187.724 114.819 186.982L120.687 194.361L138.109 177.928C138.993 178.816 139.785 179.782 140.476 180.811Z" fill="white"/>
</g>
<defs>
<clipPath id="clip0">
<rect width="366" height="280" fill="white"/>
</clipPath>
</defs>
</svg>
