<svg width="40" height="40" viewBox="0 0 40 40" fill="none" xmlns="http://www.w3.org/2000/svg">
<g clip-path="url(#clip0)">
<path d="M20 40.0001C31.0457 40.0001 40.0001 31.0457 40.0001 20C40.0001 8.95432 31.0457 0 20 0C8.95432 0 0 8.95432 0 20C0 31.0457 8.95432 40.0001 20 40.0001Z" fill="#343A40"/>
<path d="M29.1251 29.1249C28.3751 29.8749 27.125 29.8749 26.3751 29.1249L20.0001 22.75L13.6251 29.1249C12.8751 29.8749 11.6251 29.8749 10.8751 29.1249C10.1251 28.375 10.1251 27.1249 10.8751 26.3749L17.2501 20L10.8751 13.625C10.1251 12.875 10.1251 11.6249 10.8751 10.875C11.6251 10.125 12.8751 10.125 13.6251 10.875L20.0001 17.2499L26.3751 10.875C27.125 10.125 28.3751 10.125 29.1251 10.875C29.875 11.6249 29.875 12.875 29.1251 13.625L22.7501 20L29.1251 26.3749C29.875 27.1249 29.875 28.3749 29.1251 29.1249Z" fill="white"/>
</g>
<defs>
<clipPath id="clip0">
<rect width="40" height="40" fill="white"/>
</clipPath>
</defs>
</svg>
