<svg width="40" height="40" viewBox="0 0 40 40" fill="none" xmlns="http://www.w3.org/2000/svg">
<path d="M20 0C8.97156 0 0 8.97156 0 20C0 31.0284 8.97156 40 20 40C31.0284 40 40 31.0284 40 20C40 8.97156 31.0284 0 20 0Z" fill="#343A40"/>
<path d="M30.1367 15.7617L19.3033 26.5948C18.9783 26.9199 18.5516 27.0834 18.125 27.0834C17.6984 27.0834 17.2717 26.9199 16.9467 26.5948L11.5302 21.1783C10.8783 20.5267 10.8783 19.4733 11.5302 18.8217C12.1817 18.1699 13.2349 18.1699 13.8867 18.8217L18.125 23.06L27.7802 13.4052C28.4317 12.7533 29.4849 12.7533 30.1367 13.4052C30.7883 14.0567 30.7883 15.1099 30.1367 15.7617Z" fill="#FAFAFA"/>
</svg>
