<svg width="56" height="55" viewBox="0 0 56 55" fill="none" xmlns="http://www.w3.org/2000/svg">
<g clip-path="url(#clip0)">
<path d="M28.4371 0C13.273 0 0.937073 12.3359 0.937073 27.5C0.937073 42.6641 13.273 55 28.4371 55C43.6012 55 55.9371 42.6641 55.9371 27.5C55.9371 12.3359 43.6012 0 28.4371 0Z" fill="#2196F3"/>
<path d="M42.3751 21.6723L27.4791 36.5678C27.0322 37.0147 26.4456 37.2396 25.859 37.2396C25.2724 37.2396 24.6857 37.0147 24.2388 36.5678L16.7911 29.12C15.8948 28.2242 15.8948 26.7757 16.7911 25.8798C17.6869 24.9835 19.135 24.9835 20.0313 25.8798L25.859 31.7074L39.1348 18.432C40.0307 17.5357 41.4788 17.5357 42.3751 18.432C43.271 19.3279 43.271 20.776 42.3751 21.6723Z" fill="#FAFAFA"/>
</g>
<defs>
<clipPath id="clip0">
<rect width="55" height="55" fill="white" transform="translate(0.937073)"/>
</clipPath>
</defs>
</svg>
