<svg width="614" height="470" viewBox="0 0 614 470" fill="none" xmlns="http://www.w3.org/2000/svg">
<g clip-path="url(#clip0)">
<path d="M413.673 431.627C385.095 431.699 356.544 429.934 328.22 426.343C327.296 426.232 326.358 426.107 325.427 425.976C318.475 425.043 311.519 423.977 304.756 422.806C274.325 417.554 245.628 409.883 219.462 400.005C132.389 367.135 77.6428 374.131 47.0495 385.787C13.9409 398.402 1.21378 419.042 1.08903 419.249L0 418.665C0.126265 418.455 13.0176 397.508 46.4878 384.727C66.112 377.233 88.8779 373.958 114.158 374.99C145.714 376.279 181.3 384.327 219.928 398.908C246.016 408.756 274.632 416.406 304.982 421.644C311.728 422.811 318.667 423.876 325.607 424.806C326.534 424.937 327.463 425.06 328.385 425.172C405.163 435.139 479.23 429.128 527.848 422.331C567.92 416.729 593.709 410.179 593.965 410.114L594.293 411.254C594.037 411.32 568.183 417.887 528.031 423.5C490.171 428.822 451.951 431.538 413.673 431.627V431.627Z" fill="#E6E6E6"/>
<path d="M413.758 92.4622C391.684 92.4624 370.194 91.4875 349.46 89.5388C301.816 85.0608 258.079 75.399 219.462 60.8218C132.389 27.9517 77.6428 34.9469 47.0495 46.6039C13.9409 59.2184 1.21378 79.858 1.08903 80.0648L0 79.4814C0.126265 79.2714 13.0176 58.3252 46.4878 45.5435C66.1123 38.0492 88.8779 34.7726 114.158 35.8061C145.714 37.0956 181.3 45.1427 219.928 59.7242C307.138 92.6457 404.182 93.9394 470.235 89.2315C541.828 84.1262 593.452 71.0615 593.965 70.9302L594.293 72.0705C593.779 72.2024 542.063 85.2924 470.356 90.4078C451.157 91.7775 432.252 92.4622 413.758 92.4622Z" fill="#E6E6E6"/>
<path d="M410.515 5.71385C410.515 5.71385 385.898 -2.58348 370.072 30.6059C354.246 63.7952 329.629 100.303 329.629 100.303L343.696 103.622C343.696 103.622 347.213 80.3899 356.005 77.0709L352.488 106.941C352.488 106.941 457.993 141.79 505.47 103.622L503.711 92.0062C503.711 92.0062 510.745 93.6656 510.745 103.622L516.02 98.644C516.02 98.644 510.745 88.6872 494.919 75.4115C484.532 66.6979 480.962 50.1203 479.736 39.7557C478.817 31.1012 475.148 22.9108 469.21 16.2588C458.693 4.75608 439.529 -7.4697 410.515 5.71385Z" fill="#5C5A80"/>
<path d="M559.928 193.52C559.928 193.52 606.254 230.809 613.066 252.669C619.879 274.528 587.179 277.1 587.179 277.1L516.328 283.529C516.328 283.529 514.966 314.389 502.703 318.247C490.44 322.104 500.213 267.215 500.213 267.215L569.466 248.811L538.128 217.951L559.928 193.52Z" fill="#FBBEBE"/>
<path d="M343.289 232.095L337.839 300.245L307.864 415.971C307.864 415.971 280.614 468.69 303.776 469.976C326.939 471.262 325.577 419.828 325.577 419.828L369.177 310.532L373.264 235.953L343.289 232.095Z" fill="#FBBEBE"/>
<path d="M419.59 112.511C444.422 112.511 464.553 93.5136 464.553 70.0785C464.553 46.6435 444.422 27.6457 419.59 27.6457C394.757 27.6457 374.627 46.6435 374.627 70.0785C374.627 93.5136 394.757 112.511 419.59 112.511Z" fill="#FBBEBE"/>
<path d="M399.152 90.6521C399.152 90.6521 415.502 145.943 389.615 160.088C363.727 174.232 455.015 184.519 479.54 142.086C479.54 142.086 435.94 127.942 448.202 90.6521H399.152Z" fill="#FBBEBE"/>
<path d="M367.814 166.517L359.639 163.945C359.639 163.945 343.289 170.374 343.289 181.947C343.289 193.52 340.564 239.81 340.564 239.81L377.352 243.668L367.814 166.517Z" fill="#FF958C"/>
<path d="M527.939 422.916C477.641 429.948 404.332 435.626 328.306 425.758C328.3 425.049 328.3 424.358 328.3 423.684C328.3 419.672 328.462 415.705 328.788 411.783C332.683 363.494 359.043 323.235 369.243 309.283C369.757 308.574 370.232 307.936 370.658 307.369C372.305 305.188 373.263 304.036 373.263 304.036C373.263 304.036 452.289 302.819 493.163 318.248C495.134 319.028 496.938 320.142 498.486 321.533C513.726 334.805 522.68 377.894 527.939 422.916Z" fill="#5C5A80"/>
<path d="M498.615 148.515C498.615 148.515 516.328 139.514 534.041 158.802L569.466 197.377L542.216 225.666L490.44 196.091L498.615 148.515Z" fill="#FF958C"/>
<path d="M371.004 70.3476C386.921 59.4763 399.805 46.9547 408.329 32.0598C408.329 32.0598 437.539 62.69 455.391 64.2215C473.242 65.7531 457.013 27.4652 457.013 27.4652L424.557 19.8076L393.723 22.8707L369.381 38.1858L371.004 70.3476Z" fill="#5C5A80"/>
<path d="M472.728 139.514C472.728 139.514 453.66 167.965 396.431 154.383L363.956 162.823L359.639 163.945C359.639 163.945 363.727 241.096 374.627 255.24C385.527 269.385 382.802 277.1 380.077 278.385C377.352 279.671 370.539 277.1 374.627 283.529C378.714 289.958 384.164 286.1 378.714 289.958C373.264 293.816 370.539 307.96 370.539 307.96L498.615 323.39C498.615 323.39 494.528 273.242 505.428 247.525C516.328 221.808 519.053 211.521 519.053 211.521L510.878 147.229L472.728 139.514Z" fill="#FF958C"/>
<path d="M206.546 114.341H31.2256V321.161H206.546V114.341Z" fill="#E6E6E6"/>
<path d="M81.004 131.773H43.4354V155.41H81.004V131.773Z" fill="white"/>
<path d="M189.014 177.865H43.7485V186.137H189.014V177.865Z" fill="white"/>
<path d="M189.014 199.728H43.7485V208.001H189.014V199.728Z" fill="white"/>
<path d="M189.014 221.592H43.7485V229.865H189.014V221.592Z" fill="white"/>
<path d="M189.014 243.456H43.7485V251.729H189.014V243.456Z" fill="white"/>
<path d="M189.014 265.32H43.7485V273.592H189.014V265.32Z" fill="white"/>
<path d="M240.984 320.865C240.976 328.67 237.984 336.21 232.558 342.1C227.131 347.989 219.635 351.833 211.446 352.925C203.257 354.017 194.926 352.283 187.983 348.042C181.041 343.801 175.953 337.339 173.654 329.841C171.356 322.344 172.002 314.316 175.473 307.232C178.944 300.148 185.007 294.484 192.549 291.281C200.09 288.078 208.603 287.55 216.523 289.796C224.444 292.042 231.239 296.909 235.662 303.504C239.139 308.7 240.985 314.72 240.984 320.865V320.865Z" fill="#FF958C"/>
<path d="M235.662 303.504L201.762 335.49C199.632 332.377 187.762 317.911 187.762 317.911C189.283 316.46 190.906 315.107 192.621 313.863L202.463 326.249L231.692 298.665C233.174 300.156 234.503 301.776 235.662 303.504V303.504Z" fill="white"/>
</g>
<defs>
<clipPath id="clip0">
<rect width="614" height="470" fill="white"/>
</clipPath>
</defs>
</svg>
