<svg width="150" height="150" viewBox="0 0 150 150" fill="none" xmlns="http://www.w3.org/2000/svg">
<rect x="7.5" y="7.5" width="135" height="135" rx="67.5" stroke="white" stroke-opacity="0.3" stroke-width="15"/>
<path d="M99.2109 55.7109H82.1406V102H68.4297V55.7109H51.6719V45.125H99.2109V55.7109Z" fill="white" fill-opacity="0.3"/>
<path d="M99.2109 55.7109V58.2109H101.711V55.7109H99.2109ZM82.1406 55.7109V53.2109H79.6406V55.7109H82.1406ZM82.1406 102V104.5H84.6406V102H82.1406ZM68.4297 102H65.9297V104.5H68.4297V102ZM68.4297 55.7109H70.9297V53.2109H68.4297V55.7109ZM51.6719 55.7109H49.1719V58.2109H51.6719V55.7109ZM51.6719 45.125V42.625H49.1719V45.125H51.6719ZM99.2109 45.125H101.711V42.625H99.2109V45.125ZM99.2109 53.2109H82.1406V58.2109H99.2109V53.2109ZM79.6406 55.7109V102H84.6406V55.7109H79.6406ZM82.1406 99.5H68.4297V104.5H82.1406V99.5ZM70.9297 102V55.7109H65.9297V102H70.9297ZM68.4297 53.2109H51.6719V58.2109H68.4297V53.2109ZM54.1719 55.7109V45.125H49.1719V55.7109H54.1719ZM51.6719 47.625H99.2109V42.625H51.6719V47.625ZM96.7109 45.125V55.7109H101.711V45.125H96.7109Z" fill="white" fill-opacity="0.3"/>
</svg>
